<svg width="155" height="18" viewBox="0 0 155 18" fill="none" xmlns="http://www.w3.org/2000/svg">
<path d="M8.0604 0.170654V2.49732H2.6431V5.63593H7.87572V7.96259H2.6431V11.3741H8.24508V13.7008H0.125977V0.170654H8.0604Z" fill="white"/>
<path d="M16.7473 13.7008V9.29308C16.7473 7.021 15.8033 6.07942 14.4422 6.12035C13.7134 6.18147 13.0099 6.4154 12.3902 6.80266V13.7281H9.89355V4.04614H12.2807V4.81033C13.1486 4.18099 14.2047 3.86352 15.2766 3.90968C17.3287 4.01885 19.1891 5.59498 19.1891 9.32037V13.7076L16.7473 13.7008Z" fill="white"/>
<path d="M29.2304 12.7659C28.2032 13.5114 26.9569 13.8954 25.6873 13.8576C23.0607 13.8576 20.3657 12.2815 20.3657 8.86998C20.3657 7.54717 20.8925 6.27854 21.8302 5.34317C22.7679 4.4078 24.0397 3.88232 25.3658 3.88232C30.0443 3.88232 31.5218 9.77745 28.1018 9.77745H23.1838C23.1838 10.992 24.3466 11.5651 25.571 11.5651C26.2496 11.5805 26.9186 11.403 27.4999 11.0534L29.2304 12.7659ZM26.7133 7.53949C27.3973 7.53949 27.3973 7.08916 26.9937 6.69342C26.5506 6.28872 25.9662 6.07319 25.3658 6.09299C24.0388 6.09299 23.2112 6.93223 23.2043 7.53266L26.7133 7.53949Z" fill="white"/>
<path d="M33.4985 5.45849C33.8436 4.98445 34.2946 4.59708 34.8158 4.32707C35.337 4.05705 35.914 3.9118 36.5013 3.90283C37.4035 3.91461 38.2663 4.27401 38.909 4.90582L37.1579 6.673C36.9642 6.48493 36.7352 6.33688 36.484 6.23735C36.2328 6.13782 35.9644 6.08878 35.6941 6.09304C35.2636 6.1593 34.8517 6.315 34.4853 6.55007C34.1189 6.78514 33.806 7.09434 33.5669 7.45765V13.7144H31.1113V4.04612H33.4985V5.45849Z" fill="white"/>
<path d="M40.0236 14.5399C41.1664 14.8589 42.3459 15.0286 43.5325 15.0448C44.9552 14.9834 45.4956 14.3625 45.5845 13.1139C45.0441 13.7075 44.2165 13.7962 43.2452 13.8303C41.2479 13.8303 38.8949 12.5749 38.9497 8.69938C39.0044 4.93305 41.2274 3.8823 43.2247 3.8823C43.6945 3.87137 44.1617 3.95449 44.5987 4.12677C45.0358 4.29904 45.4338 4.55697 45.7692 4.88529V4.04605H48.0058V12.4794C48.0058 15.4474 46.7952 17.2555 43.5393 17.1736C42.3467 17.1028 41.1689 16.8733 40.0372 16.4913L40.0236 14.5399ZM45.5366 6.9595C45.2968 6.6741 44.9944 6.44752 44.6529 6.29727C44.3113 6.14701 43.9396 6.07712 43.5667 6.09297C42.0961 6.09297 41.46 7.19149 41.46 8.69938C41.46 10.2073 42.0961 11.5514 43.553 11.5514C44.2668 11.5603 44.9638 11.335 45.5366 10.9101V6.9595Z" fill="white"/>
<path d="M58.6491 4.04614V12.4999C58.6491 15.4679 57.0622 17.2761 53.608 17.1737C52.4159 17.0988 51.2387 16.8694 50.1059 16.4914V14.5195C51.2479 14.8312 52.4242 15.0008 53.608 15.0244C55.2564 15.0244 56.0362 14.4172 56.2414 13.189L56.2824 12.7797C55.5096 13.336 54.5879 13.6496 53.6353 13.6803C51.426 13.7349 49.374 12.2338 49.374 8.29009V4.04614H51.8159V8.29691C51.8159 10.5895 52.7735 11.456 54.0799 11.456C54.8219 11.4203 55.5444 11.2074 56.1867 10.8351V4.04614H58.6491Z" fill="white"/>
<path d="M74.1893 0.170654V13.7008H71.6721V3.5276L67.3766 8.65855L63.0879 3.50713V13.7008H60.5708V0.170654H63.4778L67.3766 5.01503L71.2823 0.170654H74.1893Z" fill="white"/>
<path d="M76.3511 1.77409C76.3512 1.49438 76.435 1.22107 76.5917 0.989128C76.7484 0.757183 76.9709 0.577151 77.2308 0.472078C77.4907 0.367005 77.7761 0.341669 78.0505 0.399304C78.3248 0.456939 78.5758 0.594925 78.7711 0.79561C78.9664 0.996296 79.0973 1.25055 79.1469 1.52584C79.1965 1.80114 79.1627 2.08494 79.0498 2.34095C78.9368 2.59696 78.7498 2.81352 78.5128 2.96292C78.2757 3.11233 77.9994 3.18779 77.7191 3.17965C77.3531 3.1673 77.0062 3.01399 76.7511 2.75191C76.496 2.48983 76.3526 2.13937 76.3511 1.77409ZM76.5768 4.03935H78.9503V13.7008H76.5768V4.03935Z" fill="white"/>
<path d="M87.5754 13.7007V9.29303C87.5754 7.02095 86.6314 6.07937 85.2703 6.12031C84.5416 6.18142 83.838 6.41535 83.2183 6.80261V13.728H80.7354V4.04609H83.1294V4.81028C83.9968 4.17996 85.0532 3.86238 86.1253 3.90963C88.1773 4.0188 90.0378 5.59493 90.0378 9.32032V13.7076L87.5754 13.7007Z" fill="white"/>
<path d="M91.5015 1.77396C91.5015 1.49597 91.5841 1.22422 91.7389 0.99308C91.8938 0.761938 92.1138 0.581783 92.3713 0.4754C92.6288 0.369017 92.9121 0.341183 93.1854 0.395416C93.4587 0.44965 93.7098 0.583518 93.9069 0.780088C94.1039 0.976658 94.2381 1.2271 94.2925 1.49975C94.3468 1.7724 94.3189 2.05501 94.2123 2.31184C94.1056 2.56867 93.925 2.78819 93.6933 2.94263C93.4616 3.09708 93.1892 3.17951 92.9105 3.17951C92.5374 3.17772 92.18 3.02906 91.9161 2.76585C91.6523 2.50265 91.5033 2.14618 91.5015 1.77396ZM91.734 4.03922H94.1007V13.7007H91.734V4.03922Z" fill="white"/>
<path d="M102.726 13.7008V9.29308C102.726 7.021 101.782 6.07942 100.428 6.12035C99.6983 6.17936 98.9943 6.41345 98.3755 6.80266V13.7281H95.8857V4.04614H98.2729V4.81033C99.1408 4.18099 100.197 3.86352 101.269 3.90968C103.321 4.01885 105.181 5.59498 105.188 9.32037V13.7076L102.726 13.7008Z" fill="white"/>
<path d="M107.466 14.5399C108.607 14.8587 109.784 15.0285 110.969 15.0448C112.398 14.9834 112.932 14.3625 113.021 13.1139C112.48 13.7075 111.618 13.7962 110.681 13.8303C108.684 13.8303 106.331 12.5749 106.386 8.69936C106.447 4.93303 108.67 3.88228 110.668 3.88228C111.136 3.87149 111.602 3.95471 112.038 4.127C112.474 4.29929 112.871 4.55714 113.205 4.88527V4.04603H115.408V12.4793C115.408 15.4474 114.197 17.2555 110.941 17.1736C109.749 17.1016 108.571 16.8722 107.439 16.4913L107.466 14.5399ZM112.938 6.95948C112.699 6.67586 112.398 6.45085 112.057 6.3018C111.717 6.15275 111.347 6.08363 110.975 6.09977C109.505 6.09977 108.862 7.19829 108.862 8.70618C108.862 10.2141 109.566 11.5514 110.989 11.5514C111.703 11.5603 112.4 11.335 112.973 10.91L112.938 6.95948Z" fill="white"/>
<path d="M128.616 12.3498C127.749 13.0525 126.725 13.5368 125.63 13.762C124.536 13.9872 123.403 13.9467 122.328 13.6439C121.253 13.341 120.266 12.7848 119.452 12.022C118.637 11.2592 118.018 10.3122 117.647 9.26083C117.276 8.20948 117.164 7.08458 117.32 5.98097C117.477 4.87735 117.896 3.82736 118.545 2.91949C119.193 2.01163 120.05 1.27251 121.045 0.764428C122.039 0.256349 123.141 -0.00579206 124.259 9.70759e-05C125.84 -0.00661662 127.375 0.533473 128.602 1.52846L126.865 3.2547C126.097 2.73184 125.188 2.4535 124.259 2.4564C123.098 2.50159 122 2.9933 121.195 3.82839C120.39 4.66349 119.94 5.77712 119.94 6.93574C119.94 8.09437 120.39 9.20799 121.195 10.0431C122 10.8782 123.098 11.3699 124.259 11.4151C124.893 11.42 125.521 11.2873 126.099 11.0262V7.24619H128.616V12.3498Z" fill="white"/>
<path d="M140.271 8.87006C140.277 9.8647 139.988 10.8389 139.439 11.6692C138.89 12.4995 138.106 13.1485 137.187 13.5338C136.267 13.9192 135.254 14.0235 134.275 13.8336C133.296 13.6437 132.396 13.1681 131.689 12.4672C130.981 11.7663 130.498 10.8715 130.301 9.89649C130.104 8.92144 130.202 7.90998 130.582 6.99038C130.962 6.07078 131.607 5.28447 132.436 4.73115C133.264 4.17783 134.239 3.88242 135.236 3.8824C135.896 3.8788 136.549 4.00511 137.159 4.25407C137.769 4.50303 138.324 4.86974 138.792 5.33316C139.26 5.79657 139.631 6.34757 139.885 6.95453C140.139 7.56148 140.27 8.21244 140.271 8.87006ZM132.644 8.87006C132.648 9.38062 132.803 9.87856 133.091 10.3011C133.378 10.7237 133.784 11.0519 134.258 11.2445C134.732 11.4371 135.253 11.4854 135.754 11.3833C136.256 11.2812 136.716 11.0334 137.077 10.6709C137.437 10.3085 137.682 9.84766 137.78 9.3466C137.879 8.84554 137.826 8.32665 137.629 7.85532C137.433 7.38399 137.1 6.98133 136.674 6.69807C136.249 6.41482 135.748 6.26366 135.236 6.26365C134.894 6.2618 134.554 6.32811 134.237 6.4587C133.921 6.58929 133.633 6.78154 133.392 7.0242C133.15 7.26687 132.96 7.55509 132.832 7.87203C132.703 8.18896 132.639 8.52825 132.644 8.87006Z" fill="white"/>
<path d="M141.625 0.170654H143.998V13.7008H141.625V0.170654Z" fill="white"/>
<path d="M154.307 0.170654V13.7008H152.125V12.8547C151.788 13.1812 151.39 13.4379 150.953 13.61C150.516 13.7822 150.05 13.8664 149.58 13.8577C147.583 13.8577 145.36 12.7865 145.305 9.03382C145.25 5.16514 147.603 3.8824 149.601 3.90287C150.424 3.88518 151.227 4.16097 151.865 4.6807V0.170654H154.307ZM151.865 6.77538C151.287 6.35615 150.588 6.13582 149.874 6.14766C148.424 6.14766 147.788 7.58733 147.788 9.00653C147.788 10.4257 148.424 11.6129 149.895 11.6129C150.267 11.6276 150.638 11.5578 150.979 11.4089C151.32 11.26 151.623 11.0358 151.865 10.7532V6.77538Z" fill="white"/>
</svg>
