<svg width="38" height="37" viewBox="0 0 38 37" fill="none" xmlns="http://www.w3.org/2000/svg">
<g filter="url(#filter0_d_1727:11373)">
<path d="M18.626 27C23.3204 27 27.126 23.1944 27.126 18.5C27.126 13.8056 23.3204 10 18.626 10C13.9316 10 10.126 13.8056 10.126 18.5C10.126 23.1944 13.9316 27 18.626 27Z" fill="white"/>
</g>
<path d="M19.5279 17.6203V15.9103C20.0886 16.0468 20.6368 16.3067 21.0852 16.7157L21.0871 16.7132C21.1206 16.7397 21.1612 16.758 21.2075 16.758C21.2684 16.758 21.3206 16.7287 21.3566 16.6856L21.3592 16.6861L22.084 15.6699L22.0823 15.6691C22.1121 15.6349 22.1318 15.5916 22.1318 15.5429C22.1318 15.4854 22.1058 15.435 22.066 15.3993C21.3937 14.7818 20.5354 14.411 19.5279 14.2996V13.3176H19.5278C19.5278 13.2098 19.44 13.1226 19.3317 13.1226H18.5531C18.4448 13.1226 18.357 13.2098 18.357 13.3176V14.2747C16.6751 14.4481 15.6785 15.5138 15.6785 16.7653C15.6785 18.4504 17.0739 18.9336 18.357 19.2435V21.1639C17.5331 21.017 16.8559 20.5923 16.3952 20.1169C16.392 20.1133 16.3886 20.1103 16.385 20.1071L16.3761 20.0985L16.3748 20.1003C16.3407 20.0712 16.2974 20.0549 16.2525 20.0541C16.2175 20.0545 16.1833 20.0642 16.1534 20.0823C16.1235 20.1004 16.0991 20.1262 16.0828 20.157L16.0804 20.1566L15.3789 21.1924L15.3797 21.1941C15.3482 21.2289 15.3305 21.2739 15.3301 21.3206C15.3301 21.3827 15.361 21.4355 15.4063 21.4712L15.4044 21.4739C16.0896 22.1553 17.0489 22.6509 18.357 22.7625V23.6826C18.357 23.7904 18.4448 23.8777 18.5531 23.8777H19.3317C19.44 23.8777 19.5278 23.7902 19.5278 23.6826H19.5279V22.7624C21.3594 22.5763 22.2689 21.5111 22.2689 20.1355C22.2689 18.4382 20.8237 17.9423 19.5279 17.6203ZM18.3569 17.3351C17.8462 17.1742 17.4972 16.9882 17.4972 16.6288C17.4972 16.2076 17.8088 15.9103 18.3569 15.8359V17.3351ZM19.5279 21.1887V19.5285C20.0762 19.7018 20.4624 19.9004 20.4624 20.309C20.4624 20.7057 20.1633 21.0647 19.5279 21.1887Z" fill="#313131"/>
<defs>
<filter id="filter0_d_1727:11373" x="0.125977" y="0" width="37" height="37" filterUnits="userSpaceOnUse" color-interpolation-filters="sRGB">
<feFlood flood-opacity="0" result="BackgroundImageFix"/>
<feColorMatrix in="SourceAlpha" type="matrix" values="0 0 0 0 0 0 0 0 0 0 0 0 0 0 0 0 0 0 127 0" result="hardAlpha"/>
<feOffset/>
<feGaussianBlur stdDeviation="5"/>
<feColorMatrix type="matrix" values="0 0 0 0 1 0 0 0 0 1 0 0 0 0 1 0 0 0 0.41 0"/>
<feBlend mode="normal" in2="BackgroundImageFix" result="effect1_dropShadow_1727:11373"/>
<feBlend mode="normal" in="SourceGraphic" in2="effect1_dropShadow_1727:11373" result="shape"/>
</filter>
</defs>
</svg>
