<svg width="25" height="24" viewBox="0 0 25 24" fill="none" xmlns="http://www.w3.org/2000/svg">
<path d="M18.0137 10.8967C19.4087 10.7007 20.4827 9.50473 20.4857 8.05573C20.4857 6.62773 19.4447 5.44373 18.0797 5.21973" stroke="#979797" stroke-width="1.5" stroke-linecap="round" stroke-linejoin="round"/>
<path d="M19.8545 14.2502C21.2055 14.4522 22.1485 14.9252 22.1485 15.9002C22.1485 16.5712 21.7045 17.0072 20.9865 17.2812" stroke="#979797" stroke-width="1.5" stroke-linecap="round" stroke-linejoin="round"/>
<path fill-rule="evenodd" clip-rule="evenodd" d="M12.0127 14.6638C8.79871 14.6638 6.05371 15.1508 6.05371 17.0958C6.05371 19.0398 8.78171 19.5408 12.0127 19.5408C15.2267 19.5408 17.9707 19.0588 17.9707 17.1128C17.9707 15.1668 15.2437 14.6638 12.0127 14.6638Z" stroke="#979797" stroke-width="1.5" stroke-linecap="round" stroke-linejoin="round"/>
<path fill-rule="evenodd" clip-rule="evenodd" d="M12.0129 11.8879C14.1219 11.8879 15.8319 10.1789 15.8319 8.06888C15.8319 5.95988 14.1219 4.24988 12.0129 4.24988C9.90388 4.24988 8.19388 5.95988 8.19388 8.06888C8.18588 10.1709 9.88288 11.8809 11.9849 11.8879H12.0129Z" stroke="#979797" stroke-width="1.5" stroke-linecap="round" stroke-linejoin="round"/>
<path d="M6.01106 10.8967C4.61506 10.7007 3.54206 9.50473 3.53906 8.05573C3.53906 6.62773 4.58006 5.44373 5.94506 5.21973" stroke="#979797" stroke-width="1.5" stroke-linecap="round" stroke-linejoin="round"/>
<path d="M4.16998 14.2502C2.81898 14.4522 1.87598 14.9252 1.87598 15.9002C1.87598 16.5712 2.31998 17.0072 3.03798 17.2812" stroke="#979797" stroke-width="1.5" stroke-linecap="round" stroke-linejoin="round"/>
</svg>
