<svg width="20" height="22" viewBox="0 0 20 22" fill="none" xmlns="http://www.w3.org/2000/svg">
<path fill-rule="evenodd" clip-rule="evenodd" d="M18.9324 6.62361L18.31 5.54352C17.7834 4.6296 16.6164 4.31432 15.7013 4.83872V4.83872C15.2656 5.09534 14.7458 5.16815 14.2564 5.04109C13.7671 4.91402 13.3483 4.59752 13.0926 4.16137C12.928 3.88415 12.8396 3.56839 12.8363 3.24604V3.24604C12.8511 2.72922 12.6561 2.2284 12.2958 1.85767C11.9354 1.48694 11.4403 1.27786 10.9232 1.27808H9.66923C9.1627 1.27807 8.67705 1.47991 8.31973 1.83895C7.96242 2.19798 7.76291 2.68459 7.76534 3.19112V3.19112C7.75033 4.23693 6.89821 5.07681 5.8523 5.0767C5.52994 5.07336 5.21419 4.98494 4.93697 4.82041V4.82041C4.02179 4.29601 2.85485 4.61129 2.32827 5.52522L1.66008 6.62361C1.13414 7.53639 1.44513 8.70261 2.35573 9.23231V9.23231C2.94763 9.57404 3.31226 10.2056 3.31226 10.8891C3.31226 11.5725 2.94763 12.2041 2.35573 12.5458V12.5458C1.44629 13.0719 1.13496 14.2353 1.66008 15.1454V15.1454L2.29166 16.2346C2.53838 16.6798 2.95234 17.0083 3.44193 17.1474C3.93152 17.2866 4.45637 17.2249 4.90035 16.976V16.976C5.33681 16.7213 5.85692 16.6516 6.34507 16.7822C6.83322 16.9128 7.24897 17.233 7.4999 17.6717C7.66443 17.9489 7.75284 18.2646 7.75619 18.587V18.587C7.75619 19.6435 8.61269 20.5 9.66923 20.5H10.9232C11.9762 20.5001 12.8312 19.6491 12.8363 18.5962V18.5962C12.8338 18.088 13.0346 17.6 13.3939 17.2407C13.7532 16.8814 14.2412 16.6807 14.7493 16.6831C15.0709 16.6917 15.3854 16.7798 15.6647 16.9394V16.9394C16.5774 17.4653 17.7436 17.1544 18.2734 16.2438V16.2438L18.9324 15.1454C19.1875 14.7075 19.2575 14.186 19.1269 13.6964C18.9964 13.2067 18.676 12.7894 18.2367 12.5367V12.5367C17.7975 12.284 17.4771 11.8666 17.3465 11.3769C17.216 10.8873 17.286 10.3658 17.5411 9.92796C17.707 9.63834 17.9471 9.3982 18.2367 9.23231V9.23231C19.1419 8.70289 19.4521 7.54349 18.9324 6.63277V6.63277V6.62361Z" stroke="#979797" stroke-width="1.5" stroke-linecap="round" stroke-linejoin="round"/>
<circle cx="10.3007" cy="10.8891" r="2.63616" stroke="#979797" stroke-width="1.5" stroke-linecap="round" stroke-linejoin="round"/>
</svg>
