<svg width="31" height="31" viewBox="0 0 31 31" fill="none" xmlns="http://www.w3.org/2000/svg">
<path d="M27.3097 16.9763V21.4049C27.3097 23.3239 22.6834 25.8335 16.9764 25.8335C11.2694 25.8335 6.64307 23.3239 6.64307 21.4049V17.7144" stroke="white" stroke-width="2" stroke-linecap="round" stroke-linejoin="round"/>
<path d="M7.07666 18.0968C8.35356 19.7915 12.3024 21.3813 16.976 21.3813C22.6829 21.3813 27.3093 19.0106 27.3093 16.9734C27.3093 15.8294 25.8523 14.5761 23.5657 13.6963" stroke="white" stroke-width="2" stroke-linecap="round" stroke-linejoin="round"/>
<path d="M22.881 9.59521V14.0238C22.881 15.9428 18.2546 18.4524 12.5477 18.4524C6.84074 18.4524 2.21436 15.9428 2.21436 14.0238V9.59521" stroke="white" stroke-width="2" stroke-linecap="round" stroke-linejoin="round"/>
<path fill-rule="evenodd" clip-rule="evenodd" d="M12.5477 14.0003C18.2546 14.0003 22.881 11.6295 22.881 9.59237C22.881 7.55375 18.2546 5.16675 12.5477 5.16675C6.84074 5.16675 2.21436 7.55375 2.21436 9.59237C2.21436 11.6295 6.84074 14.0003 12.5477 14.0003Z" stroke="white" stroke-width="2" stroke-linecap="round" stroke-linejoin="round"/>
</svg>
