<svg width="18" height="18" viewBox="0 0 18 18" fill="none" xmlns="http://www.w3.org/2000/svg">
<path d="M15.2473 0.0962524H3.23836C1.88251 0.0962524 0.849487 1.1508 0.849487 2.53489V14.794C0.849487 16.1781 1.88251 17.2326 3.23836 17.2326H15.2473C16.6031 17.2326 17.6362 16.1781 17.6362 14.794V2.53489C17.6362 1.1508 16.6031 0.0962524 15.2473 0.0962524ZM9.24282 13.8053C12.0191 13.8053 14.2788 11.5644 14.2788 8.86217C14.2788 8.4008 14.2143 7.87353 14.0851 7.47807H15.5055V14.4644C15.5055 14.794 15.2473 15.1235 14.8599 15.1235H3.62575C3.30292 15.1235 2.9801 14.8599 2.9801 14.4644V7.41216H4.46508C4.33595 7.87353 4.27139 8.33489 4.27139 8.79626C4.20682 11.5644 6.46656 13.8053 9.24282 13.8053ZM9.24282 11.8281C7.43503 11.8281 6.01462 10.3781 6.01462 8.59853C6.01462 6.81898 7.43503 5.36898 9.24282 5.36898C11.0506 5.36898 12.471 6.81898 12.471 8.59853C12.471 10.444 11.0506 11.8281 9.24282 11.8281ZM15.441 4.7758C15.441 5.17125 15.1182 5.5008 14.7308 5.5008H12.923C12.5356 5.5008 12.2128 5.17125 12.2128 4.7758V2.99625C12.2128 2.6008 12.5356 2.27125 12.923 2.27125H14.7308C15.1182 2.27125 15.441 2.6008 15.441 2.99625V4.7758Z" fill="#CCCCCC"/>
</svg>
