<svg width="21" height="18" viewBox="0 0 21 18" fill="none" xmlns="http://www.w3.org/2000/svg">
<path d="M1.23339 8.53751L5.7738 10.2658L7.54377 16.0792C7.62073 16.4719 8.08247 16.5505 8.39029 16.3148L10.9298 14.1937C11.1607 13.9581 11.5455 13.9581 11.8533 14.1937L16.3937 17.5718C16.7015 17.8074 17.1633 17.6503 17.2402 17.2575L20.6263 0.760192C20.7032 0.367398 20.3184 -0.0253922 19.9337 0.131725L1.23339 7.51625C0.771651 7.67337 0.771651 8.38039 1.23339 8.53751ZM7.31291 9.40166L16.2398 3.82398C16.3937 3.74543 16.5476 3.9811 16.3937 4.05966L9.08289 11.0514C8.85202 11.2871 8.62115 11.6013 8.62115 11.9941L8.39029 13.8795C8.39029 14.1152 8.00551 14.1937 7.92855 13.8795L7.00507 10.4229C6.7742 10.0301 6.92813 9.55877 7.31291 9.40166Z" fill="#CCCCCC"/>
</svg>
