<svg width="21" height="13" viewBox="0 0 21 13" fill="none" xmlns="http://www.w3.org/2000/svg">
<path d="M20.4321 11.3168C20.4321 11.2331 20.3501 11.2331 20.3501 11.1494C20.0221 10.4799 19.2843 9.64305 18.3005 8.72247C17.8087 8.30403 17.5627 7.96927 17.3987 7.80189C17.1528 7.46713 17.1528 7.21607 17.2348 6.88132C17.3168 6.63025 17.6447 6.2118 18.2186 5.45859C18.5465 5.04015 18.7104 4.78909 18.9564 4.53802C20.1861 2.86424 20.76 1.77628 20.596 1.27415L20.514 1.19047C20.4321 1.10678 20.3501 1.02309 20.1861 1.02309C20.0221 0.939402 19.7762 0.939402 19.5303 1.02309H16.415C16.333 1.02309 16.333 1.02309 16.169 1.02309C16.087 1.02309 16.0051 1.02309 16.0051 1.02309H15.9231H15.8411L15.7591 1.10677C15.6771 1.19046 15.6771 1.19046 15.6771 1.27415C15.3492 2.19473 14.9393 2.94793 14.5294 3.78482C14.2834 4.20326 14.0375 4.62171 13.7916 4.95647C13.5456 5.29122 13.3816 5.54229 13.2177 5.70966C13.0537 5.87704 12.8898 5.96073 12.8078 6.12811C12.7258 6.2118 12.5618 6.29549 12.5618 6.2118C12.4799 6.2118 12.3979 6.2118 12.3979 6.12811C12.3159 6.04442 12.2339 5.96073 12.1519 5.87704C12.07 5.79335 12.0699 5.62597 11.988 5.45859C11.988 5.29122 11.988 5.12384 11.988 5.04015C11.988 4.95646 11.988 4.7054 11.988 4.53802C11.988 4.28696 11.988 4.11957 11.988 4.03589C11.988 3.78482 11.988 3.45007 11.988 3.11531C11.988 2.78056 11.988 2.52948 11.988 2.36211C11.988 2.19473 11.988 1.94366 11.988 1.77629C11.988 1.52522 11.988 1.35784 11.988 1.27415C11.988 1.19046 11.906 1.02309 11.906 0.939397C11.824 0.855708 11.742 0.772016 11.66 0.688327C11.5781 0.604638 11.4141 0.604641 11.3321 0.520952C10.9222 0.437263 10.4303 0.353577 9.85646 0.353577C8.54476 0.353577 7.64296 0.437268 7.31503 0.604646C7.15107 0.688335 6.98711 0.772019 6.90512 0.939397C6.74116 1.10677 6.74116 1.19047 6.82314 1.19047C7.23305 1.27416 7.56098 1.44153 7.72494 1.69259L7.80693 1.85998C7.88891 1.94367 7.88889 2.11104 7.97087 2.36211C8.05285 2.61317 8.05286 2.86424 8.05286 3.199C8.05286 3.70113 8.05286 4.20327 8.05286 4.53802C8.05286 4.95647 7.97087 5.20753 7.97087 5.45859C7.97087 5.70966 7.88891 5.87704 7.80693 5.96073C7.72494 6.12811 7.72493 6.2118 7.64295 6.2118C7.64295 6.2118 7.64295 6.29548 7.56097 6.29548C7.47898 6.29548 7.39701 6.37918 7.23305 6.37918C7.15106 6.37918 6.98711 6.29549 6.90512 6.2118C6.74116 6.12811 6.5772 5.96074 6.49522 5.79336C6.33125 5.62598 6.16729 5.37491 6.00332 5.04015C5.83936 4.70539 5.59341 4.37064 5.42944 3.86851L5.2655 3.53376C5.18351 3.36638 5.01955 3.03162 4.85559 2.61318C4.69163 2.19473 4.52766 1.85998 4.3637 1.44154C4.28171 1.27416 4.19974 1.19046 4.11776 1.10677H4.03577C4.03577 1.10677 3.95378 1.02309 3.8718 1.02309C3.78982 1.02309 3.70785 0.939397 3.62587 0.939397H0.674531C0.346605 0.939397 0.182645 1.02308 0.100663 1.10677L0.0186768 1.19047C0.0186768 1.19047 0.0186768 1.27415 0.0186768 1.35784C0.0186768 1.44153 0.0186818 1.52521 0.100663 1.69259C0.51057 2.69686 1.00246 3.70113 1.49435 4.7054C1.98623 5.62598 2.47813 6.46287 2.80605 7.04869C3.21596 7.63451 3.54388 8.22034 3.95379 8.72247C4.3637 9.2246 4.60963 9.55936 4.69162 9.72674C4.85558 9.89411 4.93756 9.9778 5.01954 10.0615L5.2655 10.3126C5.42946 10.4799 5.6754 10.731 6.00332 10.9821C6.33125 11.2331 6.74115 11.4842 7.15106 11.7353C7.56097 11.9863 8.05287 12.1537 8.54475 12.3211C9.11862 12.4885 9.61051 12.5722 10.1024 12.4885H11.3321C11.5781 12.4885 11.742 12.4048 11.906 12.2374L11.988 12.1537C11.988 12.07 12.0699 12.07 12.0699 11.9863C12.0699 11.9026 12.0699 11.819 12.0699 11.6516C12.0699 11.3168 12.07 11.0658 12.1519 10.8147C12.2339 10.5636 12.2339 10.3963 12.3159 10.2289C12.3979 10.0615 12.4799 9.9778 12.5618 9.89411C12.6438 9.81042 12.7258 9.72674 12.7258 9.72674H12.8078C12.9717 9.64305 13.2177 9.72673 13.3817 9.89411C13.6276 10.0615 13.8735 10.3126 14.0375 10.5636C14.2015 10.8147 14.4474 11.0658 14.7753 11.4005C15.1033 11.7353 15.3492 11.9863 15.5132 12.07L15.7591 12.2374C15.9231 12.3211 16.087 12.4048 16.333 12.4885C16.5789 12.5722 16.7429 12.5722 16.9068 12.5722L19.6942 12.4885C19.9402 12.4885 20.1861 12.4048 20.3501 12.3211C20.514 12.2374 20.596 12.1537 20.596 11.9863C20.596 11.9026 20.596 11.7353 20.596 11.6516C20.432 11.4842 20.4321 11.4005 20.4321 11.3168Z" fill="#CCCCCC"/>
</svg>
