<svg width="19" height="14" viewBox="0 0 19 14" fill="none" xmlns="http://www.w3.org/2000/svg">
<path d="M18.353 5.06484C18.353 4.67385 18.2891 4.2177 18.2891 3.69638C18.2253 3.17506 18.1614 2.65374 18.0976 2.19759C17.9699 1.67626 17.7784 1.28528 17.3954 0.959453C17.0762 0.633627 16.6294 0.438126 16.1826 0.372961C14.7143 0.177466 12.5439 0.112305 9.60752 0.112305C6.67109 0.112305 4.43684 0.177466 3.03246 0.372961C2.58561 0.438126 2.13877 0.633627 1.81959 0.959453C1.50041 1.28528 1.24507 1.67626 1.1174 2.19759C0.989727 2.65374 0.9259 3.1099 0.9259 3.69638C0.862064 4.2177 0.862061 4.67385 0.862061 5.06484C0.862061 5.45584 0.862061 5.91199 0.862061 6.56364C0.862061 7.21529 0.862061 7.73662 0.862061 8.06244C0.862061 8.45343 0.9259 8.90959 0.9259 9.43091C0.989735 9.95223 1.05356 10.4735 1.1174 10.9297C1.24507 11.451 1.43658 11.842 1.81959 12.1678C2.13877 12.4937 2.58561 12.6892 3.03246 12.7543C4.50067 12.9498 6.67109 13.015 9.60752 13.015C12.5439 13.015 14.7782 12.9498 16.1826 12.7543C16.6294 12.6892 17.0762 12.4937 17.3954 12.1678C17.7146 11.842 17.9699 11.451 18.0976 10.9297C18.2253 10.4735 18.2891 10.0174 18.2891 9.43091C18.353 8.90959 18.353 8.45343 18.353 8.06244C18.353 7.67145 18.353 7.21529 18.353 6.56364C18.353 5.91199 18.353 5.39067 18.353 5.06484ZM12.9908 7.08497L7.94779 10.2781C7.88396 10.3432 7.75629 10.4084 7.62861 10.4084C7.50094 10.4084 7.43711 10.4084 7.30944 10.3432C7.11793 10.2129 6.99026 10.0174 6.99026 9.75674V3.30539C6.99026 3.04473 7.11793 2.84924 7.30944 2.71891C7.50094 2.58858 7.75629 2.58858 7.94779 2.71891L12.9908 5.91199C13.1823 6.04232 13.31 6.23782 13.31 6.43332C13.31 6.62881 13.1823 6.95464 12.9908 7.08497Z" fill="#CCCCCC"/>
</svg>
