<svg width="44" height="44" viewBox="0 0 44 44" fill="none" xmlns="http://www.w3.org/2000/svg">
<path d="M21.619 44C33.5588 44 43.238 34.1503 43.238 22C43.238 9.84974 33.5588 0 21.619 0C9.67915 0 0 9.84974 0 22C0 34.1503 9.67915 44 21.619 44Z" fill="#CDA349"/>
<path d="M22.5248 19.2982C26.2438 19.2982 26.2103 25.4773 26.2103 25.4773L26.2486 28.1596H20.6797C19.4123 28.0237 18.2233 27.4697 17.294 26.5822C16.3647 25.6947 15.7461 24.5222 15.5326 23.2436C15.49 22.9528 15.4644 22.6597 15.4559 22.3658C15.4559 22.3317 15.4559 22.3024 15.4559 22.2683C15.4588 21.9168 15.4892 21.5662 15.5469 21.2197C15.5757 21.0636 15.6092 20.9076 15.6476 20.7564C15.6859 20.6052 15.7099 20.5174 15.7482 20.4004C15.9839 19.6725 16.3567 18.9983 16.8457 18.4155C17.3094 17.8695 17.8663 17.4135 18.4895 17.0694C19.3469 16.5891 20.3097 16.3375 21.2884 16.3379H31.8319C31.5602 15.8314 31.2577 15.3428 30.9261 14.8748C30.8254 14.7431 30.72 14.6163 30.6146 14.4846C30.4037 14.2066 30.1832 13.9384 29.9532 13.6848C29.7998 13.519 29.6369 13.3532 29.474 13.1971L29.1433 12.8947C28.4137 12.2382 27.6092 11.6733 26.747 11.2122L26.4643 11.0707C26.2055 10.9391 25.9467 10.8123 25.6831 10.705C24.2353 10.142 22.6992 9.85119 21.1494 9.84662C20.5599 9.84662 19.9992 9.92953 19.4385 10.0027C18.9592 10.071 18.5087 10.1539 18.0582 10.2612C17.7179 10.3392 17.3921 10.4465 17.0662 10.5538C14.4674 11.5095 12.2673 13.3398 10.8304 15.7417C9.39345 18.1435 8.80581 20.9728 9.16478 23.761C9.52376 26.5491 10.8078 29.1288 12.8043 31.0729C14.8008 33.017 17.39 34.2088 20.143 34.4509H32.2057V25.4773H34.1754C34.1169 23.3756 33.7569 21.2939 33.1067 19.2982H22.5248Z" fill="#38383A"/>
</svg>
