<svg width="220" height="44" viewBox="0 0 220 44" fill="none" xmlns="http://www.w3.org/2000/svg">
<path d="M22.858 44C34.7978 44 44.477 34.1503 44.477 22C44.477 9.84974 34.7978 0 22.858 0C10.9182 0 1.23901 9.84974 1.23901 22C1.23901 34.1503 10.9182 44 22.858 44Z" fill="#CDA349"/>
<path d="M23.7638 19.2982C27.4828 19.2982 27.4493 25.4773 27.4493 25.4773L27.4876 28.1596H21.9187C20.6513 28.0237 19.4623 27.4697 18.533 26.5822C17.6037 25.6947 16.9852 24.5222 16.7716 23.2436C16.729 22.9528 16.7034 22.6597 16.6949 22.3658C16.6949 22.3317 16.6949 22.3024 16.6949 22.2683C16.6978 21.9168 16.7282 21.5662 16.786 21.2197C16.8147 21.0636 16.8483 20.9076 16.8866 20.7564C16.9249 20.6052 16.9489 20.5174 16.9872 20.4004C17.2229 19.6725 17.5957 18.9983 18.0847 18.4155C18.5484 17.8695 19.1053 17.4135 19.7286 17.0694C20.5859 16.5891 21.5487 16.3375 22.5274 16.3379H33.0709C32.7992 15.8314 32.4967 15.3428 32.1651 14.8748C32.0645 14.7431 31.959 14.6163 31.8536 14.4846C31.6427 14.2066 31.4223 13.9384 31.1922 13.6848C31.0389 13.519 30.8759 13.3532 30.713 13.1971L30.3823 12.8947C29.6527 12.2382 28.8482 11.6733 27.986 11.2122L27.7033 11.0707C27.4445 10.9391 27.1857 10.8123 26.9221 10.705C25.4744 10.142 23.9382 9.85119 22.3884 9.84662C21.7989 9.84662 21.2382 9.92953 20.6775 10.0027C20.1982 10.071 19.7477 10.1539 19.2972 10.2612C18.957 10.3392 18.6311 10.4465 18.3052 10.5538C15.7064 11.5095 13.5064 13.3398 12.0694 15.7417C10.6325 18.1435 10.0448 20.9728 10.4038 23.761C10.7628 26.5491 12.0468 29.1288 14.0433 31.0729C16.0398 33.017 18.629 34.2088 21.382 34.4509H33.4447V25.4773H35.4144C35.3559 23.3756 34.9959 21.2939 34.3457 19.2982H23.7638Z" fill="#38383A"/>
<path d="M72.627 14.1649V16.413H67.4961V19.4456H72.4521V21.6937H67.4961V24.99H72.8019V27.238H65.1121V14.1649H72.627Z" fill="#CDA349"/>
<path d="M80.8547 27.238V22.9792C80.8547 20.7839 79.9606 19.8741 78.6714 19.9137C77.9812 19.9727 77.3149 20.1987 76.7279 20.5729V27.2644H74.3633V17.9095H76.6243V18.6479C77.4463 18.0398 78.4465 17.7331 79.4618 17.7777C81.4053 17.8831 83.1675 19.406 83.1675 23.0056V27.2446L80.8547 27.238Z" fill="#CDA349"/>
<path d="M92.6778 26.3348C91.7049 27.0551 90.5245 27.4262 89.3219 27.3897C86.8342 27.3897 84.2817 25.8668 84.2817 22.5705C84.2817 21.2923 84.7807 20.0666 85.6688 19.1628C86.5569 18.259 87.7615 17.7513 89.0175 17.7513C93.4487 17.7513 94.848 23.4473 91.6088 23.4473H86.9508C86.9508 24.6208 88.0522 25.1745 89.2118 25.1745C89.8545 25.1894 90.4882 25.018 91.0387 24.6801L92.6778 26.3348ZM90.2937 21.2849C90.9415 21.2849 90.9415 20.8498 90.5593 20.4674C90.1396 20.0764 89.5862 19.8681 89.0175 19.8873C87.7606 19.8873 86.9768 20.6982 86.9703 21.2783L90.2937 21.2849Z" fill="#CDA349"/>
<path d="M96.7202 19.2742C97.047 18.8161 97.4742 18.4419 97.9678 18.181C98.4615 17.9201 99.008 17.7797 99.5642 17.7711C100.419 17.7824 101.236 18.1297 101.845 18.7402L100.186 20.4476C100.003 20.2659 99.7858 20.1229 99.5479 20.0267C99.31 19.9306 99.0557 19.8832 98.7998 19.8873C98.3919 19.9513 98.0019 20.1017 97.6548 20.3289C97.3078 20.556 97.0114 20.8548 96.785 21.2058V27.2512H94.4592V17.9095H96.7202V19.2742Z" fill="#CDA349"/>
<path d="M102.901 28.0489C103.983 28.3571 105.1 28.5211 106.224 28.5368C107.571 28.4774 108.083 27.8775 108.168 26.6711C107.656 27.2446 106.872 27.3303 105.952 27.3633C104.06 27.3633 101.832 26.1502 101.883 22.4057C101.935 18.7665 104.041 17.7513 105.932 17.7513C106.377 17.7407 106.82 17.821 107.234 17.9875C107.648 18.1539 108.025 18.4032 108.342 18.7204V17.9095H110.461V26.058C110.461 28.9257 109.314 30.6728 106.23 30.5937C105.101 30.5252 103.985 30.3035 102.914 29.9344L102.901 28.0489ZM108.122 20.7245C107.895 20.4488 107.609 20.2299 107.285 20.0847C106.962 19.9395 106.61 19.872 106.256 19.8873C104.864 19.8873 104.261 20.9487 104.261 22.4057C104.261 23.8626 104.864 25.1614 106.243 25.1614C106.919 25.17 107.58 24.9522 108.122 24.5417V20.7245Z" fill="#CDA349"/>
<path d="M120.541 17.9095V26.0777C120.541 28.9455 119.038 30.6926 115.767 30.5937C114.638 30.5213 113.523 30.2996 112.45 29.9344V28.0291C113.531 28.3303 114.646 28.4941 115.767 28.517C117.328 28.517 118.067 27.9303 118.261 26.7436L118.3 26.348C117.568 26.8856 116.695 27.1886 115.793 27.2183C113.7 27.271 111.757 25.8206 111.757 22.0101V17.9095H114.069V22.0167C114.069 24.2318 114.976 25.0691 116.214 25.0691C116.916 25.0346 117.601 24.8289 118.209 24.4691V17.9095H120.541Z" fill="#CDA349"/>
<path d="M135.26 14.1649V27.238H132.876V17.4085L128.808 22.3661L124.746 17.3887V27.238H122.362V14.1649H125.115L128.808 18.8457L132.507 14.1649H135.26Z" fill="#CDA349"/>
<path d="M137.307 15.7142C137.307 15.4439 137.387 15.1798 137.535 14.9557C137.684 14.7316 137.894 14.5576 138.141 14.4561C138.387 14.3546 138.657 14.3301 138.917 14.3858C139.177 14.4415 139.414 14.5748 139.599 14.7687C139.784 14.9626 139.908 15.2083 139.955 15.4743C140.002 15.7403 139.97 16.0145 139.863 16.2619C139.756 16.5092 139.579 16.7185 139.355 16.8628C139.13 17.0072 138.869 17.0801 138.603 17.0722C138.256 17.0603 137.928 16.9122 137.686 16.6589C137.445 16.4057 137.309 16.0671 137.307 15.7142ZM137.521 17.9029H139.769V27.238H137.521V17.9029Z" fill="#CDA349"/>
<path d="M147.939 27.238V22.9792C147.939 20.7839 147.045 19.8741 145.755 19.9136C145.065 19.9727 144.399 20.1987 143.812 20.5729V27.2644H141.46V17.9095H143.728V18.6479C144.549 18.0388 145.55 17.732 146.565 17.7776C148.509 17.8831 150.271 19.406 150.271 23.0056V27.2446L147.939 27.238Z" fill="#CDA349"/>
<path d="M151.657 15.7142C151.657 15.4456 151.736 15.183 151.882 14.9597C152.029 14.7363 152.237 14.5622 152.481 14.4595C152.725 14.3567 152.993 14.3298 153.252 14.3822C153.511 14.4346 153.749 14.5639 153.935 14.7539C154.122 14.9438 154.249 15.1858 154.301 15.4492C154.352 15.7126 154.326 15.9857 154.225 16.2339C154.124 16.482 153.953 16.6941 153.733 16.8434C153.514 16.9926 153.256 17.0722 152.992 17.0722C152.638 17.0705 152.3 16.9269 152.05 16.6725C151.8 16.4182 151.659 16.0738 151.657 15.7142ZM151.877 17.9029H154.119V27.238H151.877V17.9029Z" fill="#CDA349"/>
<path d="M162.288 27.238V22.9792C162.288 20.7839 161.394 19.8741 160.111 19.9137C159.421 19.9707 158.754 20.1969 158.168 20.5729V27.2644H155.81V17.9095H158.071V18.6479C158.893 18.0398 159.893 17.7331 160.908 17.7777C162.852 17.8831 164.614 19.406 164.62 23.0056V27.2446L162.288 27.238Z" fill="#CDA349"/>
<path d="M166.778 28.0489C167.858 28.357 168.973 28.5209 170.095 28.5367C171.449 28.4774 171.954 27.8775 172.038 26.671C171.527 27.2446 170.71 27.3303 169.823 27.3633C167.931 27.3633 165.702 26.1502 165.754 22.4056C165.813 18.7665 167.918 17.7513 169.81 17.7513C170.254 17.7408 170.695 17.8212 171.108 17.9877C171.521 18.1542 171.897 18.4033 172.213 18.7204V17.9095H174.299V26.0579C174.299 28.9257 173.153 30.6728 170.069 30.5936C168.939 30.5241 167.824 30.3024 166.752 29.9344L166.778 28.0489ZM171.961 20.7245C171.734 20.4505 171.448 20.2331 171.126 20.0891C170.804 19.945 170.453 19.8783 170.101 19.8939C168.708 19.8939 168.099 20.9553 168.099 22.4122C168.099 23.8692 168.767 25.1613 170.114 25.1613C170.79 25.1699 171.45 24.9522 171.993 24.5416L171.961 20.7245Z" fill="#CDA349"/>
<path d="M186.809 25.9327C185.988 26.6116 185.018 27.0795 183.981 27.2971C182.945 27.5147 181.872 27.4756 180.854 27.183C179.835 26.8904 178.901 26.3529 178.129 25.6159C177.358 24.8788 176.772 23.9638 176.42 22.948C176.069 21.9322 175.963 20.8453 176.111 19.7789C176.259 18.7126 176.656 17.6981 177.27 16.8209C177.884 15.9437 178.696 15.2295 179.638 14.7386C180.58 14.2477 181.624 13.9944 182.682 14.0001C184.18 13.9936 185.634 14.5155 186.796 15.4768L185.151 17.1448C184.423 16.6396 183.563 16.3706 182.682 16.3734C181.583 16.4171 180.543 16.8922 179.781 17.6991C179.018 18.506 178.592 19.582 178.592 20.7015C178.592 21.821 179.018 22.897 179.781 23.7039C180.543 24.5107 181.583 24.9858 182.682 25.0295C183.283 25.0342 183.878 24.906 184.425 24.6537V21.0014H186.809V25.9327Z" fill="#CDA349"/>
<path d="M197.848 22.5704C197.855 23.5315 197.581 24.4728 197.061 25.2751C196.541 26.0773 195.798 26.7044 194.927 27.0767C194.057 27.449 193.097 27.5498 192.17 27.3663C191.243 27.1828 190.39 26.7233 189.72 26.0461C189.05 25.3688 188.593 24.5043 188.406 23.5622C188.22 22.6201 188.312 21.6428 188.672 20.7543C189.032 19.8657 189.643 19.106 190.428 18.5713C191.213 18.0367 192.136 17.7513 193.08 17.7513C193.705 17.7478 194.324 17.8698 194.901 18.1104C195.479 18.3509 196.005 18.7053 196.448 19.153C196.891 19.6008 197.243 20.1332 197.483 20.7196C197.723 21.3061 197.848 21.935 197.848 22.5704ZM190.625 22.5704C190.629 23.0638 190.776 23.5449 191.048 23.9532C191.32 24.3614 191.705 24.6786 192.154 24.8647C192.603 25.0508 193.096 25.0974 193.571 24.9988C194.046 24.9002 194.482 24.6607 194.823 24.3105C195.165 23.9603 195.397 23.515 195.49 23.0309C195.583 22.5468 195.533 22.0454 195.347 21.59C195.16 21.1346 194.846 20.7455 194.442 20.4718C194.039 20.1981 193.565 20.0521 193.08 20.0521C192.756 20.0503 192.434 20.1144 192.134 20.2405C191.834 20.3667 191.562 20.5525 191.333 20.7869C191.105 21.0214 190.924 21.2999 190.803 21.6061C190.681 21.9124 190.621 22.2402 190.625 22.5704Z" fill="#CDA349"/>
<path d="M199.131 14.1649H201.379V27.238H199.131V14.1649Z" fill="#CDA349"/>
<path d="M211.142 14.1649V27.238H209.075V26.4205C208.756 26.736 208.379 26.984 207.966 27.1503C207.552 27.3167 207.11 27.398 206.665 27.3897C204.774 27.3897 202.668 26.3546 202.616 22.7287C202.565 18.9907 204.793 17.7513 206.685 17.7711C207.465 17.754 208.225 18.0204 208.829 18.5226V14.1649H211.142ZM208.829 20.5465C208.282 20.1415 207.62 19.9286 206.944 19.94C205.571 19.94 204.968 21.3311 204.968 22.7023C204.968 24.0736 205.571 25.2207 206.963 25.2207C207.316 25.2348 207.667 25.1674 207.99 25.0236C208.313 24.8797 208.6 24.6631 208.829 24.39V20.5465Z" fill="#CDA349"/>
</svg>
